/* XPM */
static char *sync_wrapper_icon[] = {
/* columns rows colors chars-per-pixel */
"48 48 10 1 ",
"  c #2B2B2B",
". c #4A9EFF",
"X c #FF6B6B",
"o c #FFA500",
"O c #4ADE80",
"+ c #666666",
"@ c #888888",
"# c #D4D4D4",
"$ c #1E1E1E",
"% c #FFFFFF",
/* pixels */
"                                                ",
"                    ........                    ",
"                 ...........                    ",
"               ..............                   ",
"              ...............                   ",
"             .................                  ",
"            ..................                  ",
"           ...................                  ",
"          ......  ASYNC  ......                 ",
"         .......................                ",
"        .........................               ",
"        XX......................OO              ",
"       XXX......................OOO             ",
"       XXX......................OOO             ",
"      XXXX......................OOOO            ",
"      XXXX......................OOOO            ",
"     XXXXX......................OOOOO           ",
"     XXXXX.......      .........OOOOO           ",
"     ooooo.......  ..  .........OOOOO           ",
"     ooooo....... .... .........OOOOO           ",
"     ooooo........    ..........OOOOO           ",
"     ooooo......................+++++           ",
"     ooooo......................+++++           ",
"     ooooo.......      .........+++++           ",
"     OOOOO.......  ..  .........+++++           ",
"     OOOOO....... .... .........+++++           ",
"     OOOOO........    ..........+++++           ",
"      OOOO......................++++            ",
"      OOOO......................++++            ",
"       OOO......................+++             ",
"       OOO......................+++             ",
"        OO........................+             ",
"        .........................               ",
"         .......................                ",
"          ......  SYNC  .......                 ",
"           ...................                  ",
"            ..................                  ",
"             .................                  ",
"              ................                  ",
"               ..............                   ",
"                 ...........                    ",
"                    ........                    ",
"                                                ",
"            run_async_safely()                  ",
"                                                ",
"             Sync Wrapper Demo                  ",
"                                                ",
"                                                "
};